<svg width="561" height="561" xmlns="http://www.w3.org/2000/svg" xmlns:xlink="http://www.w3.org/1999/xlink"><defs><circle id="a" cx="280.5" cy="280.5" r="280.5"/></defs><g fill="none" fill-rule="evenodd"><mask id="b" fill="#fff"><use xlink:href="#a"/></mask><use fill="#D1629B" xlink:href="#a"/><path d="M353.3 298c-47.9 84.2-82.9 123.3-105 117.2-18.5-6-46.8-42.5-16.4-94.9-21 12.3-32.3 19-33.7 20.2 8.4 16.1 10.6 51.3-7.5 78.3-18.2 27-52 43.4-84.7 34.3-10.6-3-26.6-24.8-12.8-55.4 12.1-27 60.9-52.4 73.6-58.7l3.5-2c-25.5-22.3-89.5-52.5-98.4-98.8-2.5-13.1 3.6-44.3 42-80.2C146 128 191 104.7 232.4 90c69.7-24.8 143.2-10.1 154.4 34.2 11 43.7-26.8 95.8-75.3 114.6-43.3 16.7-79 14-93.8 9.3-16.6-5.4-26.5-16.5-28.9-22.7-.9-2.4-2.5-6.6 0-8 1.6-.9 2.2-.6 6.5 4 4 4.4 20 16.2 50.6 12.8 80-9 128.3-71.2 113-104.7-10.7-23.4-72.3-34-149.7 4.2-94.1 46.9-99.2 85.5-100 100.2-2.2 40.4 49.8 61.7 78 91.7l1 1.2c3.4-1.8 26.9-15.6 70.4-41.4 9.4-7.7 16.7-7.2 22 1.5 6.2-6.8 9.1-12 8.8-15.6-.6-5.3 12.6 7.4 11.2 30-1.4 22.6-10.8 15.6-10.2 38.5-16-2.8-23.1-12.6-21.3-29.6-30.4 47.6-34 76.6-11 87.2 9 3.2 24.8-14.2 47.7-52.2a736.1 736.1 0 0 1 6.7-11.4c14.8-24.7 36.9-59.6 38.4-64 2.1-6 3.2-12.2 4.2-14.9 1-2.7 9.8-4.7 19.9-4.6 10.1 0 11.1 4.4 11.2 5.3.1 1-4.9 13-6 21.5-1 8.4 0 12.7 1 19.8.6 4.7 3.5 10.6 7 17.3 10.5-17.2 29-50 30.8-59.2a111 111 0 0 1 4.2-15c1-2.7 9.7-4.7 19.9-4.6 10 0 11 4.4 11.2 5.3 0 1-4.9 13-6 21.5-1.1 8.4 0 12.7 1 19.8.7 6.1 5.4 14.4 10.1 23.7 12.8-6.3 28-10.5 45.6-10.6 45.6-.3 71.3 29.2 70 56.3-.9 21.1-20.3 29.8-23.9 30.4-2.6.4-4 .5-4.4-1.5-.3-1.4.7-2 3.8-4 3-2 12.2-8.2 13.9-19.7 1.6-11.5-7-38.8-50.8-44a96.3 96.3 0 0 0-48.8 5.7c2.3 6 4 12.1 4.2 18.4.5 13.7-9 23.8-18.8 31-5.8 4.3-11.8 7.1-17 8.8-4 1.7-9.6 3.6-13.4 2.8-8.6-1.8-13-9.3-7.3-26 3.2-9 12.2-22.9 26.9-34.8-3.3-6.8-7.1-13.8-9-20.2a159.8 159.8 0 0 1-4.8-20.3s-12 25-27.6 47.6l-2.7 3.9c3 7 5.5 14.6 5.8 22.2a35.6 35.6 0 0 1-15.3 31.3 62 62 0 0 1-15.9 8.4 56.6 56.6 0 0 1-18.5 4.2c-4.8.3-9.6 0-12.3-2-3.7-2.8-4.1-6.2-2.2-10.9 1.7-4 13.6-17.6 23.6-29.6 2.9-3.3 5.5-6.7 7.8-10l4.8-6.3c-3.7-8-8.3-16.1-10.5-23.6-3.8-12.7-4.9-20.3-4.9-20.3l-4.4 5.1zm-186 111a62.8 62.8 0 0 0 15-61.7l-2.2 1.4-1 .6-9 5.4a231.7 231.7 0 0 0-34.2 25.5c-17.8 16.7-21.5 40-12.1 45.5 8.7 5 29-1 43.5-16.7zm193-30.2c6.1-3.9 19.7-13.3 19.7-27.4v-1.2c-3 4.1-6 7.8-8.5 11a509.3 509.3 0 0 1-15.3 17s-1.5 1.5-.9 1.9c1 .5 3-.2 5-1.3zm67.4-15.4c7.6-2.7 20.3-9.4 20.4-27.1a26 26 0 0 0-1.5-8.5 61.3 61.3 0 0 0-15 19.3c-5.2 11.5-5.5 15.2-4 16.3z" fill="#FFF" fill-rule="nonzero" mask="url(#b)"/></g></svg>